<svg width="27" height="27" viewBox="0 0 27 27" fill="none" xmlns="http://www.w3.org/2000/svg">
<g clip-path="url(#clip0_1_100)">
<path d="M25.3125 0H1.6875C0.754734 0 0 0.754734 0 1.6875V18.5625C0 19.4953 0.754734 20.25 1.6875 20.25H5.0625V26.5781C5.0625 26.7486 5.16502 26.903 5.3228 26.9679C5.37511 26.9899 5.42995 27 5.48438 27C5.59406 27 5.70206 26.957 5.78264 26.8764L12.409 20.25H25.3125C26.2453 20.25 27 19.4953 27 18.5625V1.6875C27 0.754734 26.2453 0 25.3125 0ZM26.1562 18.5625C26.1562 19.0282 25.7782 19.4062 25.3125 19.4062C25.3125 19.4062 12.8841 19.4062 12.4449 19.4062C12.0057 19.4062 11.6893 19.74 11.6893 19.74L5.90625 25.5234V19.8281C5.90625 19.5948 5.71767 19.4062 5.48438 19.4062H1.6875C1.22175 19.4062 0.84375 19.0282 0.84375 18.5625V1.6875C0.84375 1.22175 1.22175 0.84375 1.6875 0.84375H25.3125C25.7782 0.84375 26.1562 1.22175 26.1562 1.6875V18.5625Z" fill="#ABABAB"/>
<path d="M6.32812 6.75H13.0781C13.3114 6.75 13.5 6.56142 13.5 6.32812C13.5 6.09483 13.3114 5.90625 13.0781 5.90625H6.32812C6.09483 5.90625 5.90625 6.09483 5.90625 6.32812C5.90625 6.56142 6.09483 6.75 6.32812 6.75Z" fill="#ABABAB"/>
<path d="M20.6719 8.4375H6.32812C6.09483 8.4375 5.90625 8.62608 5.90625 8.85938C5.90625 9.09267 6.09483 9.28125 6.32812 9.28125H20.6719C20.9052 9.28125 21.0938 9.09267 21.0938 8.85938C21.0938 8.62608 20.9052 8.4375 20.6719 8.4375Z" fill="#ABABAB"/>
<path d="M6.32812 11.8125H16.4531C16.6864 11.8125 16.875 11.6239 16.875 11.3906C16.875 11.1573 16.6864 10.9688 16.4531 10.9688H6.32812C6.09483 10.9688 5.90625 11.1573 5.90625 11.3906C5.90625 11.6239 6.09483 11.8125 6.32812 11.8125Z" fill="#ABABAB"/>
<path d="M18.9844 13.5H6.32812C6.09483 13.5 5.90625 13.6886 5.90625 13.9219C5.90625 14.1552 6.09483 14.3438 6.32812 14.3438H18.9844C19.2177 14.3438 19.4062 14.1552 19.4062 13.9219C19.4062 13.6886 19.2177 13.5 18.9844 13.5Z" fill="#ABABAB"/>
</g>
<defs>
<clipPath id="clip0_1_100">
<rect width="27" height="27" fill="white"/>
</clipPath>
</defs>
</svg>
