<svg width="30" height="8" viewBox="0 0 30 8" fill="none" xmlns="http://www.w3.org/2000/svg">
<path d="M3.71362 0.287842C1.66121 0.287842 0 1.94811 0 3.99959C0 6.05106 1.65934 7.71227 3.71362 7.71227C5.76228 7.71227 7.42536 6.05387 7.42536 3.99959C7.42536 1.94811 5.76228 0.287842 3.71362 0.287842ZM15.1923 0.287842C13.1446 0.287842 11.4787 1.94718 11.4787 3.99865C11.4787 6.05013 13.1427 7.71133 15.1923 7.71133C17.2419 7.71133 18.9078 6.05293 18.9078 3.99865C18.9059 1.94811 17.2419 0.287842 15.1923 0.287842ZM26.2892 0.287842C24.2377 0.287842 22.5746 1.94811 22.5746 4.00052C22.5746 6.05013 24.2349 7.71133 26.2892 7.71133C28.3369 7.71133 30 6.05293 30 4.00052C30 1.94811 28.3369 0.287842 26.2892 0.287842Z" fill="#050102"/>
</svg>
