<svg width="26" height="26" viewBox="0 0 26 26" fill="none" xmlns="http://www.w3.org/2000/svg">
<path d="M22.75 0H3.25C2.35178 0 1.625 0.726781 1.625 1.625V24.375C1.625 25.2732 2.35178 26 3.25 26H22.75C23.6482 26 24.375 25.2732 24.375 24.375V1.625C24.375 0.726781 23.6482 0 22.75 0ZM23.5625 24.375C23.5625 24.8235 23.1985 25.1875 22.75 25.1875H3.25C2.8015 25.1875 2.4375 24.8235 2.4375 24.375V1.625C2.4375 1.1765 2.8015 0.8125 3.25 0.8125H22.75C23.1985 0.8125 23.5625 1.1765 23.5625 1.625V24.375Z" fill="#050102"/>
<path d="M19.9062 10.1562H6.09375C5.86909 10.1562 5.6875 10.3378 5.6875 10.5625C5.6875 10.7872 5.86909 10.9688 6.09375 10.9688H19.9062C20.1309 10.9688 20.3125 10.7872 20.3125 10.5625C20.3125 10.3378 20.1309 10.1562 19.9062 10.1562Z" fill="#050102"/>
<path d="M19.9062 7.71875H6.09375C5.86909 7.71875 5.6875 7.90034 5.6875 8.125C5.6875 8.34966 5.86909 8.53125 6.09375 8.53125H19.9062C20.1309 8.53125 20.3125 8.34966 20.3125 8.125C20.3125 7.90034 20.1309 7.71875 19.9062 7.71875Z" fill="#050102"/>
<path d="M19.9062 15.0312H6.09375C5.86909 15.0312 5.6875 15.2128 5.6875 15.4375C5.6875 15.6622 5.86909 15.8438 6.09375 15.8438H19.9062C20.1309 15.8438 20.3125 15.6622 20.3125 15.4375C20.3125 15.2128 20.1309 15.0312 19.9062 15.0312Z" fill="#050102"/>
<path d="M19.9062 17.4688H6.09375C5.86909 17.4688 5.6875 17.6503 5.6875 17.875C5.6875 18.0997 5.86909 18.2812 6.09375 18.2812H19.9062C20.1309 18.2812 20.3125 18.0997 20.3125 17.875C20.3125 17.6503 20.1309 17.4688 19.9062 17.4688Z" fill="#050102"/>
<path d="M19.9062 19.9062H6.09375C5.86909 19.9062 5.6875 20.0878 5.6875 20.3125C5.6875 20.5372 5.86909 20.7188 6.09375 20.7188H19.9062C20.1309 20.7188 20.3125 20.5372 20.3125 20.3125C20.3125 20.0878 20.1309 19.9062 19.9062 19.9062Z" fill="#050102"/>
<path d="M19.9062 12.5938H6.09375C5.86909 12.5938 5.6875 12.7753 5.6875 13C5.6875 13.2247 5.86909 13.4062 6.09375 13.4062H19.9062C20.1309 13.4062 20.3125 13.2247 20.3125 13C20.3125 12.7753 20.1309 12.5938 19.9062 12.5938Z" fill="#050102"/>
<path d="M6.09375 6.09375H12.5938C12.8184 6.09375 13 5.91216 13 5.6875C13 5.46284 12.8184 5.28125 12.5938 5.28125H6.09375C5.86909 5.28125 5.6875 5.46284 5.6875 5.6875C5.6875 5.91216 5.86909 6.09375 6.09375 6.09375Z" fill="#050102"/>
</svg>
