<svg width="26" height="26" viewBox="0 0 26 26" fill="none" xmlns="http://www.w3.org/2000/svg">
<g clip-path="url(#clip0_115_2)">
<path d="M25.2858 19.4017L25.2915 19.396C22.9162 17.4651 20.0752 16.0903 16.967 15.4464C18.0269 14.4133 18.6875 12.9724 18.6875 11.375C19.3607 11.375 19.9062 10.8294 19.9062 10.1562V9.34375C19.9062 8.98381 19.7474 8.66409 19.5 8.44106V4.875C19.5 2.18278 17.3172 0 14.625 0H11.375C8.68278 0 6.5 2.18278 6.5 4.875V8.44106C6.25259 8.66409 6.09375 8.98381 6.09375 9.34375V10.1562C6.09375 10.8294 6.63934 11.375 7.3125 11.375C7.3125 12.9724 7.97306 14.4133 9.03338 15.4464C5.92475 16.0907 3.08344 17.4651 0.7085 19.396L0.714188 19.4017C0.273 19.8429 0 20.4522 0 21.125V24.375C0 25.2732 0.726781 26 1.625 26H24.375C25.2732 26 26 25.2732 26 24.375V21.125C26 20.4522 25.727 19.8429 25.2858 19.4017ZM7.3125 4.875C7.3125 2.63169 9.13169 0.8125 11.375 0.8125H14.625C16.8683 0.8125 18.6875 2.63169 18.6875 4.875V7.71875C18.6875 6.37284 17.5959 5.28125 16.25 5.28125H13.8125C12.9151 5.28125 12.1875 4.55366 12.1875 3.65625C12.1875 3.43159 12.0059 3.25 11.7812 3.25C11.5566 3.25 11.375 3.43159 11.375 3.65625C11.375 4.55366 10.6474 5.28125 9.75 5.28125C8.40409 5.28125 7.3125 6.37284 7.3125 7.71875V4.875ZM8.125 11.375V10.9688C8.125 10.7441 7.94341 10.5625 7.71875 10.5625H7.3125C7.08784 10.5625 6.90625 10.3809 6.90625 10.1562V9.34375C6.90625 9.11909 7.08784 8.9375 7.3125 8.9375H7.71875C7.94341 8.9375 8.125 8.75591 8.125 8.53125V7.71875C8.125 6.82134 8.85259 6.09375 9.75 6.09375C10.5983 6.09375 11.3449 5.65987 11.7812 5.00216C12.2176 5.65987 12.9642 6.09375 13.8125 6.09375H16.25C17.1474 6.09375 17.875 6.82134 17.875 7.71875V8.53125C17.875 8.75591 18.0566 8.9375 18.2812 8.9375H18.6875C18.9122 8.9375 19.0938 9.11909 19.0938 9.34375V10.1562C19.0938 10.3809 18.9122 10.5625 18.6875 10.5625H18.2812C18.0566 10.5625 17.875 10.7441 17.875 10.9688V11.375C17.875 14.0672 15.6922 16.25 13 16.25C10.3078 16.25 8.125 14.0672 8.125 11.375ZM13 17.0625C14.159 17.0625 15.2352 16.7143 16.1342 16.1192C16.8086 16.2333 17.4736 16.3751 18.1216 16.5596C16.8005 17.8681 14.9951 18.6875 12.989 18.6875C10.9854 18.6875 9.18206 17.8705 7.86175 16.5644C8.515 16.378 9.18572 16.2342 9.86619 16.1188C10.7648 16.7143 11.841 17.0625 13 17.0625ZM25.1875 24.375C25.1875 24.8235 24.8235 25.1875 24.375 25.1875H1.625C1.1765 25.1875 0.8125 24.8235 0.8125 24.375V21.125C0.8125 20.6765 0.994094 20.2703 1.28862 19.9761L1.287 19.9745C2.97212 18.6164 4.901 17.5516 6.99319 16.8407C8.47803 18.471 10.61 19.5 12.989 19.5C15.3705 19.5 17.5045 18.4689 18.9897 16.835C21.0888 17.5459 23.0234 18.6127 24.7134 19.9745L24.7118 19.9761C25.0059 20.2703 25.1875 20.6765 25.1875 21.125V24.375Z" fill="#231F20"/>
<path d="M9.96818 8.88144C10.1612 8.98503 10.4041 8.90906 10.5146 8.72056C10.526 8.70147 10.6357 8.53125 10.968 8.53125C11.2962 8.53125 11.4132 8.70838 11.4193 8.71731C11.4916 8.85747 11.6338 8.9375 11.7809 8.9375C11.8434 8.9375 11.9072 8.92328 11.9665 8.89241C12.166 8.78962 12.2444 8.54466 12.1416 8.34519C12.0218 8.11241 11.6395 7.71875 10.968 7.71875C10.281 7.71875 9.9044 8.11809 9.78984 8.35412C9.69478 8.55034 9.77562 8.77866 9.96818 8.88144Z" fill="#231F20"/>
<path d="M14.0315 8.88144C14.2244 8.98503 14.4674 8.90906 14.5779 8.72056C14.5893 8.70147 14.6989 8.53125 15.0313 8.53125C15.3595 8.53125 15.4765 8.70838 15.4826 8.71731C15.5549 8.85747 15.6971 8.9375 15.8442 8.9375C15.9067 8.9375 15.9705 8.92328 16.0298 8.89241C16.2293 8.78962 16.3077 8.54466 16.2049 8.34519C16.0851 8.11241 15.7028 7.71875 15.0313 7.71875C14.3443 7.71875 13.9677 8.11809 13.8531 8.35412C13.7581 8.55034 13.8389 8.77866 14.0315 8.88144Z" fill="#231F20"/>
</g>
<defs>
<clipPath id="clip0_115_2">
<rect width="26" height="26" fill="white"/>
</clipPath>
</defs>
</svg>
