<svg width="26" height="26" viewBox="0 0 26 26" fill="none" xmlns="http://www.w3.org/2000/svg">
<g clip-path="url(#clip0_1_83)">
<path d="M25.5239 5.07081L20.9276 0.474498C20.293 -0.160065 19.2648 -0.160065 18.6294 0.474904C18.6294 0.474904 0.49197 18.6123 0.244563 18.8597C-0.00243657 19.1063 9.13103e-07 19.4984 9.13103e-07 19.4984L0.000407163 25.1855C0.000407163 25.6344 0.364407 25.998 0.812501 25.9984H2.83969C2.84091 25.9984 6.5 25.9984 6.5 25.9984C6.5 25.9984 6.89122 26.0016 7.13863 25.7538C7.38603 25.506 25.5239 7.36815 25.5239 7.36815C26.1593 6.73359 26.1593 5.70619 25.5239 5.07081ZM15.1759 5.0769L16.612 6.5134L2.82344 20.3027L1.38694 18.8662L15.1759 5.0769ZM3.39788 20.8772L17.1864 7.08825L18.9101 8.81197L5.12119 22.6005L3.39788 20.8772ZM1.21916 25.1855C0.994501 25.1855 0.812501 25.0043 0.812907 24.7796V24.1365L1.86184 25.1855H1.21916ZM3.01072 25.1859L0.812907 22.9881L0.813313 19.4415L6.55809 25.1863H3.01072V25.1859ZM7.13253 24.6114L5.69603 23.1749L19.485 9.38681L20.9211 10.8229L7.13253 24.6114ZM21.4955 10.2485L15.7507 4.50247L16.8996 3.35359L22.6452 9.09918L21.4955 10.2485ZM24.9494 6.79453L23.2192 8.52475L17.474 2.77915L19.2038 1.04975C19.5215 0.73206 20.0363 0.73206 20.3531 1.04894L24.9494 5.64525C25.2667 5.96294 25.2663 6.47684 24.9494 6.79453Z" fill="#ABABAB"/>
</g>
<defs>
<clipPath id="clip0_1_83">
<rect width="26" height="26" fill="white"/>
</clipPath>
</defs>
</svg>
